<svg xmlns="http://www.w3.org/2000/svg" viewBox="0 0 161.2 379.7"><style>.st0{fill:#ffb37f}.st1{fill:#ffc695}.st2{fill:#f29555}.st3{fill:#c6dfe0}.st4{fill:#e1f7f9}.st5{fill:#acd2ea}.st6{opacity:.5;fill:#4198c4}.st7{fill:#74320a}.st8{fill:#333331}.st9{fill:#4c3f38}.st10{fill:#665650}.st11{fill:#3281a0}</style><g id="object"><path class="st0" d="M67.4 145.4c-2.9-4.7-9.1-6.1-13.8-3.2-.6.4-14.9 9.4-28.3 26.9-12 15.7-20.4 35-23.4 54.5-2 13.2-5.6 44 8.7 52.6 14.7 8.8 15.8-9.2 13.6-18.6 9.1 8.1 12.1 2.3 7.8-6.2-6.3-12.4-11.8-16.3-8.8-31.3 2.8-13.9 9.1-27 17.6-38.3C52 167 64.1 159.3 64.3 159.1c4.7-2.9 6.1-9 3.1-13.7z"/><path class="st1" d="M161.1 247.4c-.3-6.2-1.1-12-1.6-16.5-2.5-22.6-10.2-44.1-24.1-62.2-13.4-17.5-27.7-26.5-28.3-26.9-4.7-2.9-10.9-1.5-13.8 3.2-2.9 4.7-1.5 10.8 3.2 13.8.2.1 12.3 7.9 23.5 22.7 8.2 10.8 14.1 23 17.1 36.2 2.6 11.6 1.1 20.2-4.4 30.5-3.6 6.9-7.4 22 5 11-2.2 9.4-1.1 27.4 13.6 18.6 9.1-5.5 10.4-18.4 9.8-30.4z"/><path class="st2" d="M111.2 146c-4.9-5.4-21.8-13.5-30.6-11.1-8.8-2.4-25.6 5.7-30.6 11.1-7.3 8-16.3 21.7-14.2 86.7h89.6c2.1-65-6.9-78.7-14.2-86.7z"/><ellipse transform="rotate(-7.002 140.696 82.007)" class="st0" cx="140.7" cy="82" rx="13.7" ry="17"/><ellipse transform="matrix(.9998 -.01765 .01765 .9998 -1.445 .373)" class="st2" cx="20.4" cy="82.1" rx="13.7" ry="17"/><path class="st3" d="M53.1 142c-4.8 3.4-18.5 12.8-28.7 26.1-2.9 3.7-5.5 7.7-7.9 11.8 5.4 4 11.7 9.1 16.9 13.2 2.2-3.9 4.7-7.7 7.4-11.3C52 167 64.1 159.3 64.3 159.1c.2-.1.3-.2.5-.3-6.1-3.2-9-10.5-11.7-16.8zm83.2 25.8c-13.1-17.1-28.1-25.1-29.2-25.8-2.2 6.5-6.6 12-12.3 15.6.5.5 1 .9 1.6 1.3.2.1 12.3 7.9 23.5 22.7 4.3 5.7 8 11.7 10.9 18.1 4.8-4.5 11.6-9.2 17.4-12.7-3.3-6.8-7.3-13.2-11.9-19.2z"/><path class="st4" d="M111.2 146c-1.7-1.8-4.7-3.9-8.3-5.9-5.5 7-14.1 11.6-23.5 11.6-9 0-17.2-4.2-22.8-10.6-2.8 1.7-5.2 3.4-6.6 4.9-7.3 8-17.3 19-14.2 86.7h89.6c4-67.7-6.9-78.7-14.2-86.7z"/><path class="st1" d="M81.6 19.2c-15.1.7-30.8 4.9-42 12.5C23 43 21.3 66.6 19.4 84.7c-2.1 19.1-1 38.6 16.5 50 12.2 7.9 31.5 7.7 45.8 8.9V19.2z"/><path class="st1" d="M80.6 19.2c15.1.7 29.8 4.9 41 12.5 16.6 11.3 18.3 34.9 20.2 53 2.1 19.1 1 38.6-16.5 50-12.2 7.9-30.5 7.7-44.8 8.9V19.2z"/><path class="st0" d="M35.9 231.7c1.1 11.6 7.5 74.7 22.8 126h16l-3-88h18l-3 87h16c14.9-49.9 21.3-111.3 22.7-125H35.9z"/><path class="st5" d="M74.7 357.7h-16s-27 14-25 22h42l-1-22zm11.8-1h16s27 14 25 22h-42l1-22z"/><path class="st6" d="M62.9 378.7h12.8l-.8-17.8c-5.9 4.2-9.6 10.9-12 17.8zm35.4 0H85.5l.8-17.8c5.9 4.2 9.6 10.9 12 17.8z"/><path class="st7" d="M80.6 0c-4.3-.3-63.2 3.5-60.9 65.1 0 0 6.4 13.9 6.5 14-1.3-8 8.3-17.6 11.5-20.7 15.7-14.9 29.9 1.1 44.7 7.7 11.3 5.1 24.6 8.6 36.8 4.3 3-1 6.6-3.1 9.6-5.7C134.1 72.3 135 79 135 79l6.5-14C143.8 3.5 84.9-.2 80.6 0z"/><circle class="st8" cx="50.5" cy="88.8" r="6.5"/><circle class="st8" cx="110.7" cy="88.8" r="6.5"/><path class="st2" d="M91.9 103c0 3.5-2.8 6.3-6.3 6.3h-10c-3.5 0-6.3-2.8-6.3-6.3s2.8-6.3 6.3-6.3h10c3.5 0 6.3 2.8 6.3 6.3zm2.2 12.7c-1.6-.2-3.1.9-3.3 2.6-.1.8-1.3 7-10.2 7.4-8.9-.4-10.1-6.6-10.2-7.4-.2-1.6-1.7-2.8-3.3-2.6-1.6.2-2.8 1.7-2.6 3.3.5 4.3 4.6 12.1 16 12.6h.4c11.3-.5 15.4-8.3 16-12.6 0-1.6-1.1-3.1-2.8-3.3z"/><path class="st9" d="M35.9 231.7c1.1 11.6 7.5 74.7 22.8 126h16l-3-88h18l-3 87h16c14.9-49.9 21.3-111.3 22.7-125H35.9z"/><path class="st9" d="M80 269.7v-38H35.9c1.1 11.6 7.5 74.7 22.8 126h16l-3-88H80z"/><path class="st10" d="M125 245.4H37l-2-14h92z"/><path class="st11" d="M36 373.7c-1.8 2.2-2.8 4.2-2.4 6h42l-.3-6H36zm49.8 1l-.2 5h42c.4-1.5-.3-3.2-1.6-5H85.8z"/><path class="st10" d="M54 350.4h22.7v8.7H54zm30.7.3h22.7v8.7H84.7z"/></g></svg>