<svg id="Layer_1" xmlns="http://www.w3.org/2000/svg" xmlns:xlink="http://www.w3.org/1999/xlink" viewBox="0 0 187.3 187.3"><style>.st0{fill:#1ba6a8}.st0,.st1{clip-path:url(#SVGID_2_)}.st2{fill:#ffb37f}.st3{fill:#ffc695}.st4{fill:#f29555}.st5{fill:#c6dfe0}.st6{fill:#e1f7f9}.st7{fill:#74320a}.st8{fill:#333331}</style><defs><circle id="SVGID_1_" cx="93.7" cy="93.7" r="93.7"/></defs><clipPath id="SVGID_2_"><use xlink:href="#SVGID_1_" overflow="visible"/></clipPath><circle class="st0" cx="93.7" cy="93.7" r="93.7"/><g class="st1"><path class="st2" d="M52.6 190.7c1.3-2.1 2.7-4.1 4.2-6.1 9.9-13.1 20.6-20 20.8-20.1 4.1-2.6 5.4-8.1 2.8-12.2-2.6-4.2-8.1-5.4-12.2-2.8-.5.3-13.2 8.3-25.1 23.8-4.1 5.4-7.8 11.2-10.8 17.4h20.3z"/><path class="st3" d="M106.1 164.3c.2.1 10.9 7 20.8 20.1 1.6 2.1 3 4.2 4.4 6.4h20.2c-3-6.2-6.6-12.1-10.9-17.7-11.9-15.5-24.6-23.5-25.1-23.8-4.2-2.6-9.6-1.3-12.2 2.8-2.6 4.1-1.3 9.6 2.8 12.2z"/><path class="st4" d="M131.3 190.7c-2-25.1-7.4-32.8-12.1-37.9-4.4-4.8-19.3-12-27.1-9.9-7.8-2.1-22.7 5.1-27.1 9.9-4.6 5-10 12.7-12.1 37.9h78.4z"/><ellipse transform="rotate(-6.996 145.49 96.157)" class="st2" cx="145.5" cy="96.1" rx="12.1" ry="15.1"/><ellipse transform="matrix(.9998 -.01769 .01769 .9998 -1.695 .7)" class="st4" cx="38.7" cy="96.2" rx="12.1" ry="15.1"/><path class="st5" d="M52.6 190.7c1.3-2.1 2.7-4.1 4.2-6.1 9.9-13.1 20.6-20 20.8-20.1.1-.1.3-.2.4-.3-5.4-2.9-7.9-9.3-10.3-15-4.3 3-16.4 11.4-25.5 23.2-2.5 3.3-4.9 6.8-7 10.4 3.2 2.4 6.7 5.2 10.1 7.8h7.3zm74.4-6.3c1.6 2.1 3 4.2 4.4 6.4h18.2c.9-.5 1.7-1.1 2.5-1.6-2.9-5.9-6.4-11.6-10.5-17-11.7-15.2-24.9-22.3-25.9-22.9-2 5.7-5.9 10.6-10.9 13.9.4.4.9.8 1.4 1.1.1.1 10.8 7 20.8 20.1z"/><path class="st6" d="M132.1 190.7c-1.8-26.2-8.2-32.7-12.9-37.9-1.5-1.6-4.2-3.5-7.3-5.2-4.9 6.2-12.5 10.3-20.9 10.3-8 0-15.3-3.7-20.2-9.4-2.5 1.5-4.6 3-5.8 4.4-4.7 5.1-10.7 11.7-12.5 37.9h79.6z"/><path class="st3" d="M93 40.4c-13.4.6-27.3 4.3-37.2 11.1-14.7 10-16.2 30.9-18 47-1.8 17-.9 34.2 14.6 44.3 10.8 7 27.9 6.8 40.6 7.9V40.4z"/><path class="st3" d="M92.1 40.4c13.4.6 26.4 4.3 36.4 11.1 14.7 10 16.2 30.9 18 47 1.8 17 .9 34.2-14.6 44.3-10.8 7-27 6.8-39.7 7.9V40.4z"/><path class="st7" d="M92.1 23.4c-3.8-.2-56.1 3.1-54 57.7l5.7 12.4c-1.2-7.1 7.3-15.6 10.2-18.4 14-13.2 26.5.9 39.7 6.8 10.1 4.5 21.9 7.6 32.6 3.9 2.6-.9 5.8-2.7 8.5-5 4.7 6.8 5.5 12.7 5.5 12.7l5.7-12.4c2.2-54.6-50-57.9-53.9-57.7z"/><circle class="st8" cx="65.4" cy="102.2" r="5.8"/><circle class="st8" cx="118.8" cy="102.2" r="5.8"/><path class="st4" d="M102.2 114.8c0 3.1-2.5 5.6-5.6 5.6h-8.9c-3.1 0-5.6-2.5-5.6-5.6 0-3.1 2.5-5.6 5.6-5.6h8.9c3.1-.1 5.6 2.5 5.6 5.6zm1.9 11.2c-1.5-.2-2.8.8-3 2.3-.1.7-1.2 6.2-9 6.6-7.9-.4-8.9-5.9-9-6.6-.2-1.4-1.5-2.5-3-2.3-1.5.2-2.5 1.5-2.3 3 .5 3.8 4.1 10.7 14.2 11.2h.2c10.1-.4 13.7-7.3 14.2-11.2.2-1.5-.8-2.8-2.3-3z"/></g></svg>